<?xml version="1.0" encoding="utf-8"?>
<!-- Generator: Adobe Illustrator 26.1.0, SVG Export Plug-In . SVG Version: 6.00 Build 0)  -->
<svg version="1.1" id="Capa_1" xmlns="http://www.w3.org/2000/svg" xmlns:xlink="http://www.w3.org/1999/xlink" x="0px" y="0px"
	 viewBox="0 0 560 175" style="enable-background:new 0 0 560 175;" xml:space="preserve">
<style type="text/css">
	.st0{fill:#333333;}
	.st1{fill:#FFFFFF;}
	.st2{fill:#F10005;}
</style>
<g>
	<path class="st0" d="M88.01,132.45V87.17l39.49-40.08h-9.93l7.81-7.85L123.13,37L113.1,47.09H61.1c0.05-0.49,0.08-0.97,0.08-1.47
		c0-7.92-6.45-14.37-14.37-14.37S32.45,37.7,32.45,45.62s6.45,14.37,14.37,14.37c0.47,0,0.94-0.02,1.41-0.07l-0.31-3.15
		c-0.36,0.04-0.73,0.05-1.1,0.05c-6.18,0-11.2-5.02-11.2-11.2s5.02-11.2,11.2-11.2s11.2,5.02,11.2,11.2c0,0.49-0.03,0.98-0.1,1.47
		H45.48l39.35,39.94v45.42l-13.32,6.31H61.15v3.17h50.68v-3.17h-10.5L88.01,132.45z M89.65,75.16l12.77-12.84h5.62L86.49,84.19
		L64.94,62.32h33.01L87.4,72.93L89.65,75.16z M119.93,50.26l-8.76,8.89h-5.59l8.84-8.89H119.93z M109.95,50.26l-8.84,8.89H61.81
		l-8.76-8.89H109.95z M86.42,135.2l7.5,3.56H78.92L86.42,135.2z"/>
	<g>
		<path class="st0" d="M195.91,70.29c-10.37-9.39-20.05-10.37-25.37-10.37c-20.33,0-34.06,15-34.06,35.61
			c0,19.77,14.3,35.05,34.2,35.05c11.21,0,19.91-5.75,25.23-10.79v16.96c-9.39,5.61-19.21,7.01-25.65,7.01
			c-16.96,0-27.62-7.71-33.08-12.9c-10.93-10.23-15-22.15-15-35.33c0-17.24,7.15-29.16,15-36.59c9.67-9.11,20.89-12.2,33.78-12.2
			c8.55,0,16.82,1.54,24.95,6.73V70.29z"/>
		<path class="st0" d="M209.12,39.73h13.74v48.22c5.89-6.03,12.34-6.59,15.84-6.59c10.79,0,15.7,5.61,17.38,7.99
			c3.65,5.33,3.79,12.2,3.79,16.4v36.17h-13.74v-34.91c0-3.5,0-7.29-2.66-10.23c-1.54-1.68-4.21-3.08-7.71-3.08
			c-4.63,0-8.27,2.24-10.09,4.91c-1.96,2.8-2.8,7.29-2.8,14.86v28.46h-13.74V39.73z"/>
		<path class="st0" d="M327.97,128.47c-2.52,4.49-6.17,8.41-9.95,10.79c-4.77,3.08-11.07,4.49-17.38,4.49
			c-7.85,0-14.3-1.96-19.91-7.57c-5.61-5.61-8.69-13.74-8.69-22.57c0-9.11,3.22-17.94,9.39-24.25c4.91-4.91,11.36-7.99,19.77-7.99
			c9.39,0,15.42,4.06,18.92,7.71c7.57,7.85,8.27,18.78,8.27,24.95v1.68h-42.34c0.28,4.21,2.1,8.97,5.05,11.92
			c3.22,3.22,7.15,3.78,10.51,3.78c3.78,0,6.59-0.84,9.39-2.94c2.38-1.82,4.21-4.21,5.47-6.45L327.97,128.47z M314.38,104.5
			c-0.56-3.22-2.1-6.03-4.21-7.99c-1.82-1.68-4.77-3.36-9.25-3.36c-4.77,0-7.85,1.96-9.67,3.78c-1.96,1.82-3.5,4.63-4.21,7.57
			H314.38z"/>
		<path class="st0" d="M393.77,128.47c-2.52,4.49-6.17,8.41-9.95,10.79c-4.77,3.08-11.07,4.49-17.38,4.49
			c-7.85,0-14.3-1.96-19.91-7.57c-5.61-5.61-8.69-13.74-8.69-22.57c0-9.11,3.22-17.94,9.39-24.25c4.91-4.91,11.36-7.99,19.77-7.99
			c9.39,0,15.42,4.06,18.92,7.71c7.57,7.85,8.27,18.78,8.27,24.95v1.68h-42.34c0.28,4.21,2.1,8.97,5.05,11.92
			c3.22,3.22,7.15,3.78,10.51,3.78c3.78,0,6.59-0.84,9.39-2.94c2.38-1.82,4.21-4.21,5.47-6.45L393.77,128.47z M380.18,104.5
			c-0.56-3.22-2.1-6.03-4.21-7.99c-1.82-1.68-4.77-3.36-9.25-3.36c-4.77,0-7.85,1.96-9.67,3.78c-1.96,1.82-3.5,4.63-4.21,7.57
			H380.18z"/>
		<path class="st0" d="M406.6,82.91h13.74v5.33c1.54-1.82,3.79-3.79,5.75-4.91c2.66-1.54,5.33-1.96,8.41-1.96
			c3.36,0,7.01,0.56,10.79,2.8l-5.61,12.48c-3.08-1.96-5.61-2.1-7.01-2.1c-2.94,0-5.89,0.42-8.55,3.22
			c-3.79,4.06-3.79,9.67-3.79,13.6v30.56H406.6V82.91z"/>
		<path class="st0" d="M476.69,98.47c-1.4-2.24-4.07-5.05-8.41-5.05c-1.96,0-3.36,0.7-4.21,1.54c-0.7,0.7-1.26,1.82-1.26,3.08
			c0,1.54,0.7,2.52,1.96,3.36c0.84,0.56,1.68,0.84,4.63,2.38l7.01,3.5c3.08,1.54,6.03,3.08,8.27,5.47
			c3.22,3.22,4.35,6.87,4.35,10.93c0,5.33-1.96,9.95-5.19,13.46c-4.63,5.05-10.37,6.59-16.54,6.59c-3.78,0-8.55-0.56-12.76-3.78
			c-3.36-2.52-6.17-6.59-7.57-10.79l11.21-5.33c0.7,1.96,1.96,4.49,3.22,5.61c0.84,0.84,2.8,2.24,6.03,2.24
			c2.1,0,4.35-0.7,5.61-1.96c1.12-1.12,1.96-2.94,1.96-4.63c0-1.68-0.56-3.08-1.82-4.49c-1.68-1.68-3.64-2.66-5.89-3.64l-5.05-2.38
			c-2.66-1.26-5.89-2.8-8.13-5.05c-3.08-2.94-4.21-6.17-4.21-9.95c0-4.77,1.82-9.39,4.91-12.62c2.66-2.8,7.15-5.61,14.44-5.61
			c4.21,0,7.57,0.84,10.93,3.08c1.96,1.26,4.63,3.5,6.73,7.29L476.69,98.47z"/>
	</g>
	<path class="st2" d="M522.51,82.78h-17.38c-2.79,0-5.05,2.26-5.05,5.05v49.06c0,2.79,2.26,5.05,5.05,5.05h17.38
		c2.79,0,5.05-2.26,5.05-5.05V87.82C527.55,85.04,525.29,82.78,522.51,82.78z"/>
	<g>
		<path class="st1" d="M512.78,102.09v-6.37l-4.22-1.8v-1.84l15.69,6.89l-15.69,6.71v-1.84L512.78,102.09z M514.35,101.44l5.99-2.51
			l-5.99-2.56V101.44z"/>
		<path class="st1" d="M503.39,111.31v-1.62h14.48v1.62h-1.3c1.37,1.1,1.53,2.51,1.53,3.19c0,2.92-2.42,4.53-4.94,4.53
			c-2.56,0-4.87-1.64-4.87-4.47c0-1.5,0.67-2.56,1.57-3.25H503.39z M513.16,117.37c2.29,0,3.5-1.55,3.5-3.05s-1.23-3.1-3.48-3.1
			c-1.91,0-3.46,1.21-3.46,3.12C509.72,116.22,511.3,117.37,513.16,117.37z"/>
		<path class="st1" d="M503.39,125.24v-1.62h14.48v1.62h-1.3c1.37,1.1,1.53,2.51,1.53,3.19c0,2.92-2.42,4.53-4.94,4.53
			c-2.56,0-4.87-1.64-4.87-4.47c0-1.5,0.67-2.56,1.57-3.25H503.39z M513.16,131.3c2.29,0,3.5-1.55,3.5-3.05c0-1.5-1.23-3.1-3.48-3.1
			c-1.91,0-3.46,1.21-3.46,3.12C509.72,130.15,511.3,131.3,513.16,131.3z"/>
	</g>
</g>
</svg>
